<svg xmlns="http://www.w3.org/2000/svg" viewBox="0 0 24 24">
  <defs>
    <linearGradient id="shieldGradient" x1="0%" y1="0%" x2="100%" y2="100%">
      <stop offset="0%" style="stop-color:#4CAF50;stop-opacity:1" />
      <stop offset="100%" style="stop-color:#2E7D32;stop-opacity:1" />
    </linearGradient>
    <linearGradient id="dnsGradient" x1="0%" y1="0%" x2="100%" y2="100%">
      <stop offset="0%" style="stop-color:#2196F3;stop-opacity:1" />
      <stop offset="100%" style="stop-color:#1565C0;stop-opacity:1" />
    </linearGradient>
  </defs>
  
  <!-- DNS Server representation -->
  <rect x="2" y="4" width="20" height="3" rx="1.5" fill="url(#dnsGradient)" opacity="0.8"/>
  <rect x="2" y="8.5" width="20" height="3" rx="1.5" fill="url(#dnsGradient)" opacity="0.6"/>
  <rect x="2" y="13" width="20" height="3" rx="1.5" fill="url(#dnsGradient)" opacity="0.4"/>
  
  <!-- Shield overlay for protection -->
  <path d="M12 1L3 5V11C3 16.55 6.84 21.74 12 23C17.16 21.74 21 16.55 21 11V5L12 1Z" 
        fill="url(#shieldGradient)" 
        opacity="0.9" 
        stroke="#1B5E20" 
        stroke-width="0.5"/>
  
  <!-- Checkmark inside shield -->
  <path d="M9 12L11 14L15 10" 
        stroke="white" 
        stroke-width="2" 
        stroke-linecap="round" 
        stroke-linejoin="round" 
        fill="none"/>
  
  <!-- DNS dots/indicators -->
  <circle cx="5" cy="5.5" r="0.8" fill="white" opacity="0.9"/>
  <circle cx="8" cy="5.5" r="0.8" fill="white" opacity="0.9"/>
  <circle cx="5" cy="10" r="0.8" fill="white" opacity="0.7"/>
  <circle cx="8" cy="10" r="0.8" fill="white" opacity="0.7"/>
  <circle cx="5" cy="14.5" r="0.8" fill="white" opacity="0.5"/>
  <circle cx="8" cy="14.5" r="0.8" fill="white" opacity="0.5"/>
</svg>